<svg width="378" height="213" viewBox="0 0 378 213" fill="none" xmlns="http://www.w3.org/2000/svg">
<g filter="url(#filter0_b_8104_6462)">
<ellipse cx="188.622" cy="106.699" rx="178" ry="67.5" transform="rotate(-13 188.622 106.699)" fill="#3D4059"/>
<path d="M361.086 66.8826C363.096 75.5891 360.387 85.0703 353.523 94.8296C346.659 104.588 335.702 114.526 321.442 124.061C292.928 143.126 251.388 160.458 203.581 171.495C155.775 182.532 110.841 185.164 76.855 180.528C59.8583 178.21 45.6545 174.081 35.2071 168.319C24.7592 162.556 18.1686 155.222 16.1586 146.515C14.1485 137.809 16.8569 128.327 23.7214 118.568C30.5855 108.81 41.5418 98.8719 55.8019 89.3373C84.316 70.2722 125.856 52.9403 173.663 41.9033C221.469 30.8663 266.403 28.2341 300.389 32.8699C317.386 35.1883 331.59 39.3172 342.037 45.0793C352.485 50.8416 359.076 58.176 361.086 66.8826Z" stroke="#D9FF5A" stroke-width="2"/>
</g>
<path d="M366.139 98.0398C366.451 106.97 361.984 115.76 353.383 124.03C344.783 132.3 332.132 139.964 316.314 146.603C284.686 159.877 240.602 168.964 191.568 170.676C142.534 172.389 97.9233 166.399 65.4464 155.363C49.2044 149.844 36.0494 143.081 26.8934 135.432C17.737 127.781 12.667 119.324 12.3551 110.394C12.0433 101.464 16.511 92.6738 25.1115 84.4037C33.7115 76.134 46.3627 68.4695 62.1802 61.8311C93.8082 48.5571 137.892 39.4698 186.926 37.7575C235.961 36.0452 280.571 42.0351 313.048 53.0706C329.29 58.5895 342.445 65.3528 351.601 73.0024C360.758 80.6525 365.828 89.1097 366.139 98.0398Z" stroke="#D9FF5A" stroke-width="2"/>
<defs>
<filter id="filter0_b_8104_6462" x="-15.7596" y="-0.582329" width="408.763" height="214.563" filterUnits="userSpaceOnUse" color-interpolation-filters="sRGB">
<feFlood flood-opacity="0" result="BackgroundImageFix"/>
<feGaussianBlur in="BackgroundImageFix" stdDeviation="15.1352"/>
<feComposite in2="SourceAlpha" operator="in" result="effect1_backgroundBlur_8104_6462"/>
<feBlend mode="normal" in="SourceGraphic" in2="effect1_backgroundBlur_8104_6462" result="shape"/>
</filter>
</defs>
</svg>
