<svg width="358" height="157" viewBox="0 0 358 157" fill="none" xmlns="http://www.w3.org/2000/svg">
<g filter="url(#filter0_b_2518_1384)">
<ellipse cx="178.622" cy="79.7287" rx="178" ry="67.5" transform="rotate(-13 178.622 79.7287)" fill="white" fill-opacity="0.19"/>
<path d="M351.086 39.9124C353.096 48.6189 350.387 58.1001 343.523 67.8594C336.659 77.6181 325.702 87.5557 311.442 97.0903C282.928 116.155 241.388 133.487 193.581 144.524C145.775 155.561 100.841 158.194 66.855 153.558C49.8583 151.239 35.6545 147.11 25.2071 141.348C14.7592 135.586 8.16863 128.252 6.15857 119.545C4.1485 110.838 6.85688 101.357 13.7214 91.598C20.5855 81.8393 31.5418 71.9017 45.8019 62.3671C74.316 43.302 115.856 25.9701 163.663 14.9331C211.469 3.89606 256.403 1.26387 290.389 5.89965C307.386 8.21805 321.59 12.347 332.037 18.109C342.485 23.8714 349.076 31.2058 351.086 39.9124Z" stroke="#D9FF5A" stroke-width="2"/>
</g>
<path d="M356.139 71.0696C356.451 79.9997 351.984 88.7899 343.383 97.0601C334.783 105.33 322.132 112.994 306.314 119.633C274.686 132.907 230.602 141.994 181.568 143.706C132.534 145.419 87.9233 139.429 55.4464 128.393C39.2044 122.874 26.0494 116.111 16.8934 108.461C7.73697 100.811 2.66695 92.3541 2.35511 83.424C2.04326 74.4939 6.51098 65.7036 15.1115 57.4335C23.7115 49.1638 36.3627 41.4993 52.1802 34.8608C83.8082 21.5868 127.892 12.4996 176.926 10.7873C225.961 9.07497 270.571 15.0649 303.048 26.1003C319.29 31.6193 332.445 38.3826 341.601 46.0322C350.758 53.6823 355.828 62.1394 356.139 71.0696Z" stroke="#D9FF5A" stroke-width="2"/>
<defs>
<filter id="filter0_b_2518_1384" x="-25.7596" y="-27.5525" width="408.763" height="214.563" filterUnits="userSpaceOnUse" color-interpolation-filters="sRGB">
<feFlood flood-opacity="0" result="BackgroundImageFix"/>
<feGaussianBlur in="BackgroundImageFix" stdDeviation="15.1352"/>
<feComposite in2="SourceAlpha" operator="in" result="effect1_backgroundBlur_2518_1384"/>
<feBlend mode="normal" in="SourceGraphic" in2="effect1_backgroundBlur_2518_1384" result="shape"/>
</filter>
</defs>
</svg>
