<svg width="25" height="24" viewBox="0 0 25 24" fill="none" xmlns="http://www.w3.org/2000/svg">
<path fill-rule="evenodd" clip-rule="evenodd" d="M5.0275 3.94L4.8275 6.39C4.7875 6.86 5.1575 7.25 5.6275 7.25H20.9375C21.3575 7.25 21.7075 6.93 21.7375 6.51C21.8675 4.74 20.5175 3.3 18.7475 3.3H6.4575C6.3575 2.86 6.1575 2.44 5.8475 2.09C5.3475 1.56 4.6475 1.25 3.9275 1.25H2.1875C1.7775 1.25 1.4375 1.59 1.4375 2C1.4375 2.41 1.7775 2.75 2.1875 2.75H3.9275C4.2375 2.75 4.5275 2.88 4.7375 3.1C4.9475 3.33 5.0475 3.63 5.0275 3.94ZM10.1875 20.75C10.1875 21.7165 9.404 22.5 8.4375 22.5C7.471 22.5 6.6875 21.7165 6.6875 20.75C6.6875 19.7835 7.471 19 8.4375 19C9.404 19 10.1875 19.7835 10.1875 20.75ZM18.1875 20.75C18.1875 21.7165 17.404 22.5 16.4375 22.5C15.471 22.5 14.6875 21.7165 14.6875 20.75C14.6875 19.7835 15.471 19 16.4375 19C17.404 19 18.1875 19.7835 18.1875 20.75ZM5.35755 8.75H20.6976C21.1676 8.75 21.5276 9.14 21.4876 9.6L21.1576 14.27C21.0476 15.77 19.7276 17 18.2276 17H7.10755C5.39755 17 4.05755 15.54 4.19755 13.83L4.55755 9.48C4.59755 9.07 4.93755 8.75 5.35755 8.75Z" fill="#D9FF5A"/>
</svg>
